<svg width="173" height="43" viewBox="0 0 173 43" fill="none" xmlns="http://www.w3.org/2000/svg">
<path d="M50.9651 12.502H46.124V24.0234H48.6206V14.9986H49.3386L53.3258 24.0234H56.0555L50.9651 12.502Z" fill="white"/>
<path d="M94.5405 24.0234H97.0371V12.502H94.5405V24.0234Z" fill="white"/>
<path d="M61.145 12.502L56.0552 24.0234H58.7843L62.7715 14.9986H63.4895V24.0234H65.9862V12.502H61.145Z" fill="white"/>
<path d="M77.1509 12.502H72.5835L67.4932 24.0234H70.2228L71.8812 20.2692H77.8532L79.5116 24.0234H82.2412L77.1509 12.502V12.502ZM72.9843 17.7726L74.21 14.9986H75.5244L76.7501 17.7726H72.9843Z" fill="white"/>
<path d="M89.4499 12.502H83.6846V24.0234H86.1812V14.9986H87.8234L91.8106 24.0234H94.5402L89.4499 12.502Z" fill="white"/>
<path d="M98.4238 12.502V14.9986H104.249V24.0234H106.746V14.9986H112.571V12.502H98.4238Z" fill="white"/>
<path d="M116.455 12.502H113.958V24.0234H124.823V21.5267H116.455V12.502Z" fill="white"/>
<path d="M138 14.9986V12.502H126.21V24.0234H138V21.5267H128.707V19.3445H136.763V16.8479H128.707V14.9986H138Z" fill="white"/>
<path d="M7.51736 12.8071L1.97904 9.9873C1.54583 10.8385 1.17688 11.7308 0.883301 12.6397L6.79704 14.5519C6.99029 13.9541 7.23256 13.3674 7.51782 12.8076L7.51736 12.8071Z" fill="white"/>
<path d="M12.2217 7.83748L15.2893 13.1229C15.7373 12.8631 16.2167 12.6633 16.7156 12.5293L15.1279 6.62755C15.532 6.5189 15.9425 6.42921 16.3554 6.36402L15.3799 0.225586C14.4362 0.375383 13.4986 0.601465 12.5925 0.896898L14.4894 6.71077C13.8861 6.90773 13.2984 7.1523 12.7325 7.44172L9.94419 1.99911C9.09627 2.4337 8.27608 2.93857 7.50537 3.50124L11.1694 8.52128C11.5069 8.27532 11.8596 8.04738 12.2212 7.83702L12.2217 7.83748Z" fill="white"/>
<path d="M28.683 12.2166L23.3994 15.287C23.6597 15.7346 23.8594 16.2145 23.994 16.7124L29.8952 15.122C30.0039 15.526 30.0936 15.9361 30.1592 16.3485L36.2967 15.3712C36.1465 14.428 35.9199 13.4899 35.6236 12.5833L29.8106 14.4839C29.6132 13.8806 29.3686 13.2934 29.0787 12.7275L34.5195 9.93548C34.0849 9.08848 33.5791 8.2683 33.0165 7.49805L27.9978 11.1644C28.2442 11.5019 28.4722 11.8542 28.6825 12.2162L28.683 12.2166Z" fill="white"/>
<path d="M26.5282 1.97423C25.6761 1.54149 24.7838 1.173 23.8758 0.879883L21.9668 6.79454C22.5641 6.98734 23.1513 7.2296 23.7121 7.5144L26.5282 1.97377V1.97423Z" fill="white"/>
<path d="M24.3215 7.72917L21.2188 13.114C21.6681 13.3729 22.0824 13.6901 22.4509 14.0572L31.153 5.32549C30.4779 4.65279 29.7447 4.02818 28.9735 3.46875L25.3844 8.41852C25.0423 8.17071 24.6881 7.94 24.3219 7.72871L24.3215 7.72917Z" fill="white"/>
<path d="M7.73275 12.1972L13.1162 15.3031C13.3751 14.8542 13.6932 14.4395 14.0607 14.0706L5.33276 5.36523C4.6596 6.04024 4.03452 6.77305 3.4751 7.54376L8.42301 11.1352C8.1752 11.4768 7.94403 11.831 7.73275 12.1972Z" fill="white"/>
<path d="M20.1464 6.25957L21.0854 0.217298C20.1575 0.0730491 19.2079 0 18.2624 0H18.248V12.3277H18.2624C18.782 12.3277 19.2962 12.3943 19.7909 12.5256L21.385 6.51847C20.9772 6.41029 20.5639 6.32475 20.1464 6.25957V6.25957Z" fill="white"/>
<path d="M12.5261 16.7301L6.51986 15.1318C6.41121 15.5396 6.32522 15.9529 6.26003 16.3704L0.218685 15.4287C0.0735114 16.3598 0 17.3131 0 18.2614H12.3277C12.3277 17.7408 12.3948 17.2253 12.5265 16.7301H12.5261Z" fill="white"/>
<path d="M29.0073 23.7175L34.5456 26.5373C34.9788 25.6861 35.3478 24.7938 35.6414 23.8849L29.7276 21.9727C29.5344 22.5705 29.2921 23.1572 29.0068 23.717L29.0073 23.7175Z" fill="white"/>
<path d="M24.3025 28.6858L21.2349 23.4004C20.7869 23.6602 20.3075 23.86 19.8086 23.994L21.3963 29.8957C20.9917 30.0044 20.5816 30.0941 20.1688 30.1593L21.1438 36.2972C22.0874 36.1475 23.0251 35.9214 23.9312 35.6259L22.0343 29.8121C22.6381 29.6151 23.2253 29.3705 23.7912 29.0811L26.5795 34.5237C27.4274 34.0891 28.2476 33.5843 29.0183 33.0216L25.3543 28.0016C25.0168 28.2475 24.664 28.4755 24.3025 28.6858V28.6858Z" fill="white"/>
<path d="M7.84177 24.3083L13.1258 21.2379C12.8655 20.7903 12.6658 20.3104 12.5312 19.8125L6.62999 21.4029C6.52134 20.9989 6.43165 20.5888 6.366 20.1764L0.228027 21.1537C0.378286 22.0969 0.604831 23.035 0.901188 23.9416L6.71414 22.041C6.91155 22.6443 7.15613 23.2315 7.44601 23.7974L2.00525 26.5894C2.43984 27.4364 2.94564 28.2566 3.5083 29.0269L8.52695 25.3605C8.28053 25.023 8.0526 24.6707 7.84224 24.3087L7.84177 24.3083Z" fill="white"/>
<path d="M9.99609 34.5499C10.8482 34.9827 11.7405 35.3512 12.6485 35.6443L14.5575 29.7296C13.9602 29.5368 13.373 29.2946 12.8122 29.0098L9.99609 34.5504V34.5499Z" fill="white"/>
<path d="M12.2031 28.7958L15.3058 23.4109C14.8564 23.152 14.4421 22.8349 14.0737 22.4678L5.37158 31.1994C6.04659 31.8721 6.77986 32.4968 7.55103 33.0562L11.1401 28.1064C11.4823 28.3542 11.8364 28.5849 12.2026 28.7962L12.2031 28.7958Z" fill="white"/>
<path d="M28.7914 24.3277L23.4079 21.2217C23.149 21.6706 22.8309 22.0853 22.4634 22.4543L31.1909 31.16C31.8641 30.485 32.4891 29.7522 33.0486 28.9815L28.1006 25.3901C28.3485 25.0484 28.5796 24.6943 28.7909 24.3281L28.7914 24.3277Z" fill="white"/>
<path d="M16.7338 23.998L15.1396 30.0052C15.5474 30.1134 15.9608 30.1989 16.3782 30.2641L15.4397 36.3063C16.3676 36.4506 17.3173 36.5236 18.2627 36.5236H18.2771V24.1959H18.2627C17.7431 24.1959 17.2289 24.1294 16.7342 23.998H16.7338Z" fill="white"/>
<path d="M24.1969 18.2627C24.1969 18.7833 24.1298 19.2983 23.998 19.794L30.0042 21.3922C30.1129 20.9845 30.1989 20.5711 30.2641 20.1536L36.3059 21.0959C36.4511 20.1647 36.5246 19.2114 36.5246 18.2632H24.1969V18.2627Z" fill="white"/>
<path d="M46 31.5996V39.9996H47.38V37.4796H49.096C50.776 37.4796 51.976 36.2556 51.976 34.5396C51.976 32.8236 50.776 31.5996 49.096 31.5996H46ZM47.38 36.2436V32.8356H49.012C49.924 32.8356 50.596 33.5556 50.596 34.5396C50.596 35.5236 49.924 36.2436 49.012 36.2436H47.38Z" fill="#696969"/>
<path d="M55.2281 40.1436C57.0761 40.1436 58.1801 38.8476 58.1801 37.2036C58.1801 35.5596 57.0761 34.2636 55.2281 34.2636C53.3801 34.2636 52.2761 35.5596 52.2761 37.2036C52.2761 38.8476 53.3801 40.1436 55.2281 40.1436ZM55.2281 38.9796C54.1721 38.9796 53.5841 38.2236 53.5841 37.2036C53.5841 36.1836 54.1721 35.4276 55.2281 35.4276C56.2841 35.4276 56.8721 36.1836 56.8721 37.2036C56.8721 38.2236 56.2841 38.9796 55.2281 38.9796Z" fill="#696969"/>
<path d="M61.348 39.9996L62.704 36.0156L64.06 39.9996H65.164L67.228 34.4076H65.788L64.624 38.1036L63.412 34.4076H61.996L60.784 38.1036L59.62 34.4076H58.18L60.244 39.9996H61.348Z" fill="#696969"/>
<path d="M72.7137 36.9156C72.7137 35.3436 71.6337 34.2636 70.0377 34.2636C68.3337 34.2636 67.2297 35.4156 67.2297 37.2036C67.2297 39.0156 68.3217 40.1436 70.0857 40.1436C71.4297 40.1436 72.4857 39.4116 72.6537 38.3676H71.3337C71.1177 38.7996 70.7337 39.0036 70.0857 39.0036C69.1377 39.0036 68.5617 38.5236 68.5257 37.6356H72.6777C72.7017 37.3236 72.7137 37.1436 72.7137 36.9156ZM68.5257 36.6396C68.5377 35.8476 69.0897 35.2956 70.0137 35.2956C70.9137 35.2956 71.4177 35.7756 71.4297 36.6396H68.5257Z" fill="#696969"/>
<path d="M75.0458 39.9996V37.5276C75.0458 36.2556 75.6098 35.5596 76.5338 35.5596C76.7378 35.5596 76.8458 35.5596 77.0498 35.5836V34.3836C76.9058 34.3476 76.7378 34.3356 76.5338 34.3356C75.9218 34.3356 75.2498 34.6956 75.0458 35.4876V34.4076H73.7378V39.9996H75.0458Z" fill="#696969"/>
<path d="M82.7806 36.9156C82.7806 35.3436 81.7006 34.2636 80.1046 34.2636C78.4006 34.2636 77.2966 35.4156 77.2966 37.2036C77.2966 39.0156 78.3886 40.1436 80.1526 40.1436C81.4966 40.1436 82.5526 39.4116 82.7206 38.3676H81.4006C81.1846 38.7996 80.8006 39.0036 80.1526 39.0036C79.2046 39.0036 78.6286 38.5236 78.5926 37.6356H82.7446C82.7686 37.3236 82.7806 37.1436 82.7806 36.9156ZM78.5926 36.6396C78.6046 35.8476 79.1566 35.2956 80.0806 35.2956C80.9806 35.2956 81.4846 35.7756 81.4966 36.6396H78.5926Z" fill="#696969"/>
<path d="M87.9327 35.1636C87.5847 34.5996 86.9127 34.2636 86.1687 34.2636C84.4287 34.2636 83.3847 35.5596 83.3847 37.2036C83.3847 38.8476 84.3327 40.1436 86.1327 40.1436C86.8167 40.1436 87.5847 39.8076 87.9327 39.2436V39.9996H89.2287V31.5996H87.9327V35.1636ZM86.3247 38.9796C85.3047 38.9796 84.6927 38.2236 84.6927 37.2036C84.6927 36.1836 85.3047 35.4276 86.3247 35.4276C87.4407 35.4276 87.9807 36.2436 87.9807 37.2036C87.9807 38.1636 87.4407 38.9796 86.3247 38.9796Z" fill="#696969"/>
<path d="M96.6063 34.2636C95.8143 34.2636 95.0703 34.6236 94.7223 35.1636V31.5996H93.4263V39.9996H94.7223V39.2436C95.0703 39.7836 95.7783 40.1436 96.5223 40.1436C98.1423 40.1436 99.2703 38.9316 99.2703 37.2036C99.2703 35.4396 98.2023 34.2636 96.6063 34.2636ZM96.3303 38.9796C95.3463 38.9796 94.6743 38.2596 94.6743 37.2036C94.6743 36.1476 95.3463 35.4276 96.3303 35.4276C97.2903 35.4276 97.9623 36.1596 97.9623 37.2036C97.9623 38.2476 97.2903 38.9796 96.3303 38.9796Z" fill="#696969"/>
<path d="M104.092 37.2996C104.092 38.2596 103.66 38.9916 102.748 38.9916C101.812 38.9916 101.536 38.3676 101.536 37.5396V34.4076H100.228V37.8156C100.228 39.1596 100.912 40.1436 102.292 40.1436C103.12 40.1436 103.744 39.8196 104.092 39.2196V39.9276C104.092 41.1156 103.528 41.5836 102.748 41.5836C101.908 41.5836 101.608 41.2476 101.548 40.6356H100.228C100.24 41.2476 100.456 41.7396 100.852 42.0876C101.296 42.4596 101.944 42.6636 102.772 42.6636C103.564 42.6636 104.212 42.4356 104.668 42.0156C105.136 41.5596 105.4 40.8996 105.4 40.0236V34.4076H104.092V37.2996Z" fill="#696969"/>
<path d="M112.137 38.8956C111.621 38.8956 111.321 38.7756 111.321 37.8036V35.4996H112.605V34.4076H111.321V32.7156H110.013V34.4076H109.065V35.4996H110.013V38.1036C110.013 39.9876 111.189 40.0716 111.825 40.0716C112.209 40.0716 112.593 40.0356 112.797 39.9996V38.8476C112.665 38.8716 112.341 38.8956 112.137 38.8956Z" fill="#696969"/>
<path d="M116.891 34.2636C116.063 34.2636 115.415 34.5876 115.067 35.1876V31.5996H113.759V39.9996H115.067V36.9276C115.067 35.9436 115.547 35.3796 116.399 35.3796C117.311 35.3796 117.623 35.8956 117.623 37.0836V39.9996H118.931V36.4836C118.931 35.0196 118.235 34.2636 116.891 34.2636Z" fill="#696969"/>
<path d="M125.38 36.9156C125.38 35.3436 124.3 34.2636 122.704 34.2636C121 34.2636 119.896 35.4156 119.896 37.2036C119.896 39.0156 120.988 40.1436 122.752 40.1436C124.096 40.1436 125.152 39.4116 125.32 38.3676H124C123.784 38.7996 123.4 39.0036 122.752 39.0036C121.804 39.0036 121.228 38.5236 121.192 37.6356H125.344C125.368 37.3236 125.38 37.1436 125.38 36.9156ZM121.192 36.6396C121.204 35.8476 121.756 35.2956 122.68 35.2956C123.58 35.2956 124.084 35.7756 124.096 36.6396H121.192Z" fill="#696969"/>
<path d="M147.318 38.8956C146.802 38.8956 146.502 38.7756 146.502 37.8036V35.4996H147.786V34.4076H146.502V32.7156H145.194V34.4076H144.246V35.4996H145.194V38.1036C145.194 39.9876 146.37 40.0716 147.006 40.0716C147.39 40.0716 147.774 40.0356 147.978 39.9996V38.8476C147.846 38.8716 147.522 38.8956 147.318 38.8956Z" fill="#696969"/>
<path d="M151.414 40.1436C153.262 40.1436 154.366 38.8476 154.366 37.2036C154.366 35.5596 153.262 34.2636 151.414 34.2636C149.566 34.2636 148.462 35.5596 148.462 37.2036C148.462 38.8476 149.566 40.1436 151.414 40.1436ZM151.414 38.9796C150.358 38.9796 149.77 38.2236 149.77 37.2036C149.77 36.1836 150.358 35.4276 151.414 35.4276C152.47 35.4276 153.058 36.1836 153.058 37.2036C153.058 38.2236 152.47 38.9796 151.414 38.9796Z" fill="#696969"/>
<path d="M158.8 34.4076L156.676 36.8676V31.5996H155.38V39.9996H156.676V37.4436L158.74 39.9996H160.456L158.032 37.0836L160.456 34.4076H158.8Z" fill="#696969"/>
<path d="M165.818 36.9156C165.818 35.3436 164.738 34.2636 163.142 34.2636C161.438 34.2636 160.334 35.4156 160.334 37.2036C160.334 39.0156 161.426 40.1436 163.19 40.1436C164.534 40.1436 165.59 39.4116 165.758 38.3676H164.438C164.222 38.7996 163.838 39.0036 163.19 39.0036C162.242 39.0036 161.666 38.5236 161.63 37.6356H165.782C165.806 37.3236 165.818 37.1436 165.818 36.9156ZM161.63 36.6396C161.642 35.8476 162.194 35.2956 163.118 35.2956C164.018 35.2956 164.522 35.7756 164.534 36.6396H161.63Z" fill="#696969"/>
<path d="M168.15 39.9996V36.9276C168.15 35.9436 168.63 35.3796 169.482 35.3796C170.394 35.3796 170.706 35.8956 170.706 37.0836V39.9996H172.014V36.4836C172.014 35.0196 171.318 34.2636 169.974 34.2636C169.146 34.2636 168.498 34.5876 168.15 35.1876V34.4076H166.842V39.9996H168.15Z" fill="#696969"/>
<circle cx="135" cy="36" r="6" fill="#ADFF00"/>
<path fill-rule="evenodd" clip-rule="evenodd" d="M131.38 33.1274C131.379 33.1296 131.379 34.4379 131.379 36.0346L131.38 38.9378H132.631C133.644 38.9378 133.889 38.937 133.922 38.9336C133.944 38.9313 133.982 38.9259 134.008 38.9216C134.033 38.9174 134.074 38.9086 134.099 38.9022C134.124 38.8958 134.165 38.8835 134.189 38.875C134.214 38.8665 134.256 38.8501 134.282 38.8386C134.308 38.8271 134.347 38.8082 134.368 38.7966C134.389 38.785 134.429 38.7606 134.456 38.7424C134.483 38.7242 134.521 38.6966 134.541 38.681C134.56 38.6654 134.597 38.6326 134.622 38.608C134.647 38.5835 134.683 38.5448 134.702 38.5221C134.721 38.4994 134.747 38.4646 134.761 38.4449C134.775 38.4252 134.796 38.3934 134.807 38.3742C134.819 38.3551 134.838 38.3183 134.851 38.2925C134.864 38.2668 134.882 38.2255 134.892 38.2008C134.902 38.1761 134.916 38.1364 134.923 38.1126C134.93 38.0889 134.939 38.0536 134.944 38.0342C134.948 38.0148 134.955 37.9809 134.958 37.9589C134.962 37.9368 134.966 37.9051 134.968 37.8884C134.971 37.8667 134.972 37.715 134.973 37.3613C134.974 37.0253 134.974 36.8478 134.971 36.8127C134.969 36.7842 134.965 36.7433 134.961 36.7218C134.958 36.7003 134.95 36.6651 134.944 36.6434C134.938 36.6218 134.928 36.5899 134.921 36.5725C134.915 36.5552 134.9 36.5205 134.888 36.4956C134.876 36.4707 134.852 36.4299 134.835 36.4051C134.819 36.3803 134.799 36.3524 134.792 36.3431C134.784 36.3338 134.767 36.3141 134.754 36.2992C134.74 36.2844 134.716 36.26 134.699 36.245C134.682 36.2301 134.655 36.2077 134.639 36.1954C134.622 36.183 134.593 36.1636 134.575 36.1521C134.556 36.1407 134.524 36.123 134.502 36.1129C134.481 36.1028 134.45 36.0893 134.432 36.0828C134.415 36.0763 134.382 36.066 134.359 36.0598C134.336 36.0536 134.31 36.0461 134.31 36.0461C134.31 36.0461 134.309 36.0375 134.31 36.0119L134.31 35.9779L134.336 35.9686C134.35 35.9636 134.375 35.9523 134.393 35.9435C134.41 35.9348 134.435 35.9202 134.449 35.911C134.462 35.9019 134.483 35.8867 134.495 35.8772C134.506 35.8677 134.527 35.8481 134.541 35.8336C134.555 35.819 134.573 35.7982 134.582 35.7873C134.59 35.7764 134.604 35.7555 134.613 35.7408C134.622 35.7262 134.636 35.7011 134.643 35.6852C134.651 35.6692 134.662 35.641 134.668 35.6225C134.674 35.6039 134.683 35.5723 134.687 35.5521L134.694 35.5155V34.8522C134.694 34.2281 134.694 34.1864 134.689 34.1457C134.685 34.1219 134.68 34.0873 134.676 34.0688C134.673 34.0502 134.666 34.0207 134.662 34.0031C134.658 33.9854 134.647 33.9512 134.64 33.9269C134.632 33.9026 134.618 33.8652 134.609 33.8437C134.6 33.8222 134.583 33.7851 134.571 33.7612C134.559 33.7374 134.54 33.702 134.528 33.6826C134.516 33.6632 134.496 33.633 134.484 33.6155C134.471 33.5979 134.45 33.5696 134.436 33.5524C134.422 33.5353 134.393 33.5023 134.371 33.4791C134.348 33.456 134.315 33.4239 134.297 33.408C134.278 33.392 134.246 33.3666 134.226 33.3515C134.206 33.3363 134.17 33.3119 134.146 33.2971C134.122 33.2823 134.077 33.2575 134.045 33.242C134.013 33.2264 133.968 33.2064 133.943 33.1974C133.919 33.1884 133.88 33.1753 133.855 33.1684C133.831 33.1614 133.79 33.1514 133.763 33.1461C133.737 33.1408 133.698 33.134 133.677 33.1309C133.641 33.1257 133.561 33.1253 132.51 33.1244C131.602 33.1236 131.381 33.1241 131.38 33.1274ZM135.388 33.1275C135.388 33.1297 135.387 33.316 135.388 33.5416L135.389 33.9518H135.803H136.217V33.5384V33.1251L135.804 33.1242C135.474 33.1236 135.39 33.1243 135.388 33.1275ZM137.049 33.1275C137.048 33.1297 137.047 33.5028 137.047 33.9566L137.046 34.7817L136.217 34.7833L135.389 34.7849V36.8614V38.9378H135.803H136.217L136.219 37.2779L136.22 35.6181H136.632H137.043L137.044 37.2779L137.046 38.9378H137.874H138.703V38.5228V38.1079L138.29 38.1063L137.878 38.1047V36.8614V35.6181L138.29 35.6165L138.703 35.6149V35.1999V34.7849L138.29 34.7833L137.878 34.7817L137.876 33.9534L137.874 33.1251L137.462 33.1242C137.135 33.1236 137.05 33.1243 137.049 33.1275ZM133.531 33.961C133.545 33.9642 133.567 33.9704 133.581 33.9748C133.595 33.9793 133.619 33.9891 133.635 33.9967C133.65 34.0043 133.673 34.0175 133.686 34.026C133.698 34.0346 133.721 34.0531 133.736 34.0672C133.751 34.0813 133.771 34.1041 133.782 34.118C133.792 34.1319 133.806 34.1531 133.813 34.1651C133.82 34.177 133.83 34.1976 133.835 34.2108C133.841 34.2239 133.848 34.2478 133.853 34.2639C133.857 34.2799 133.862 34.3093 133.864 34.3291C133.867 34.3548 133.867 34.4924 133.867 34.8074C133.865 35.2098 133.865 35.252 133.86 35.2767C133.857 35.2917 133.85 35.3168 133.845 35.3325C133.839 35.3482 133.828 35.3741 133.82 35.39C133.812 35.4059 133.797 35.4305 133.786 35.4448C133.776 35.459 133.755 35.483 133.74 35.498C133.725 35.5131 133.7 35.5336 133.685 35.5437C133.669 35.5538 133.645 35.5677 133.63 35.5746C133.615 35.5815 133.592 35.5909 133.578 35.5956C133.564 35.6002 133.539 35.6064 133.523 35.6094C133.497 35.6144 133.445 35.6149 132.852 35.6149H132.209L132.208 34.7881C132.207 34.3334 132.208 33.9596 132.208 33.9573C132.21 33.954 132.336 33.9534 132.859 33.9542C133.47 33.9552 133.509 33.9556 133.531 33.961ZM133.811 36.4538C133.824 36.4569 133.845 36.4631 133.859 36.4677C133.873 36.4723 133.899 36.4833 133.917 36.4922C133.934 36.501 133.96 36.5169 133.974 36.5274C133.988 36.5379 134.01 36.5568 134.022 36.5694C134.035 36.5819 134.052 36.6022 134.062 36.6145C134.071 36.6268 134.085 36.6506 134.094 36.6675C134.103 36.6844 134.115 36.7133 134.121 36.7318C134.127 36.7502 134.135 36.7806 134.137 36.7993C134.142 36.8289 134.142 36.8917 134.142 37.2784C134.142 37.6498 134.142 37.7284 134.138 37.7538C134.135 37.7705 134.13 37.7966 134.125 37.8117C134.121 37.8268 134.112 37.8506 134.106 37.8645C134.099 37.8784 134.085 37.9036 134.074 37.9204C134.063 37.9372 134.044 37.9615 134.032 37.9744C134.02 37.9872 133.999 38.0069 133.984 38.018C133.97 38.0291 133.946 38.0455 133.93 38.0544C133.915 38.0634 133.889 38.0752 133.874 38.0807C133.859 38.0862 133.834 38.0939 133.819 38.0977L133.792 38.1047H133H132.209L132.208 37.2795C132.207 36.8257 132.208 36.4526 132.208 36.4504C132.21 36.4471 132.364 36.4465 132.999 36.4473C133.734 36.4482 133.791 36.4487 133.811 36.4538Z" fill="black"/>
</svg>
