<svg width="118" height="28" viewBox="0 0 118 28" fill="none" xmlns="http://www.w3.org/2000/svg">
<g clip-path="url(#clip0_2901_1456)">
<path d="M31.6578 14.8337V21.8209C31.6553 22.2567 31.54 22.6843 31.3231 23.062C31.1063 23.4397 30.7954 23.7545 30.4207 23.9757L24.3805 27.4621C24.0063 27.6856 23.5789 27.8035 23.1434 27.8035C22.7079 27.8035 22.2804 27.6856 21.9063 27.4621L15.866 23.9757C15.4914 23.7545 15.1804 23.4397 14.9636 23.062C14.7468 22.6843 14.6315 22.2567 14.629 21.8209V19.8599L17.7216 18.061V21.4699L23.1337 24.6173L28.5458 21.4699V15.1896L23.1337 12.0422L10.4539 19.4023C10.0763 19.6155 9.65028 19.7275 9.21684 19.7275C8.78347 19.7275 8.35742 19.6155 7.97982 19.4023L1.9395 15.9014C1.57063 15.6768 1.26569 15.3608 1.05405 14.9838C0.842471 14.6068 0.731381 14.1816 0.731445 13.749V6.76176C0.733951 6.32601 0.849282 5.89844 1.06613 5.5207C1.28291 5.14303 1.59389 4.82819 1.96847 4.60697L8.00879 1.1206C8.3837 0.899377 8.81078 0.782715 9.24582 0.782715C9.68093 0.782715 10.108 0.899377 10.4829 1.1206L16.5232 4.60697C16.8978 4.82819 17.2088 5.14303 17.4256 5.5207C17.6424 5.89844 17.7578 6.32601 17.7603 6.76176V8.72282L14.6483 10.5096V7.12005L9.23618 3.97266L3.82405 7.12005V13.3931L9.23618 16.5406L21.916 9.18046C22.2936 8.96722 22.7196 8.85525 23.1531 8.85525C23.5864 8.85525 24.0125 8.96722 24.3901 9.18046L30.4304 12.6813C30.8029 12.9036 31.1117 13.2185 31.3267 13.5957C31.5418 13.9728 31.6559 14.3993 31.6578 14.8337Z" fill="#7B3FE4"/>
<path d="M42.4212 24.3609V18.9158C43.0107 19.6591 44.0811 20.0755 45.3205 20.0755C48.4856 20.0755 50.6239 17.8239 50.6239 14.3908C50.6239 10.9577 48.6596 8.70605 45.5839 8.70605C44.1656 8.70605 43.0735 9.23142 42.4187 10.0837V8.87307H39.3889V24.3536L42.4212 24.3609ZM44.946 17.451C43.3079 17.451 42.2399 16.226 42.2399 14.3908C42.2399 12.5556 43.3079 11.3087 44.946 11.3087C46.5382 11.3087 47.6303 12.5193 47.6303 14.3908C47.6303 16.2623 46.5455 17.451 44.946 17.451Z" fill="white"/>
<path d="M57.5109 20.0755C60.8937 20.0755 63.3096 17.669 63.3096 14.3908C63.3096 11.1126 60.8937 8.70605 57.5109 8.70605C54.1283 8.70605 51.7122 11.1102 51.7122 14.3908C51.7122 17.6713 54.1283 20.0755 57.5109 20.0755ZM57.5109 17.451C55.8751 17.451 54.7613 16.2042 54.7613 14.3908C54.7613 12.5774 55.8776 11.3087 57.5109 11.3087C59.1442 11.3087 60.2602 12.5532 60.2602 14.3908C60.2602 16.2284 59.1487 17.451 57.5109 17.451Z" fill="white"/>
<path d="M68.1822 19.9016V4.0918H65.1501V19.9016H68.1822Z" fill="white"/>
<path d="M77.2982 8.88037L75.0076 15.9863L72.6952 8.88037H69.5906L73.5819 19.8117L71.9679 24.3609H74.8675L76.4256 19.8601L80.4195 8.8852L77.2982 8.88037Z" fill="white"/>
<path d="M88.9375 9.97467C88.3258 9.2096 87.2464 8.70605 85.9048 8.70605C82.6967 8.70605 80.7563 10.9577 80.7563 14.3908C80.7563 17.8239 82.689 20.0755 85.9485 20.0755C87.2361 20.0755 88.3913 19.5913 88.9593 18.785V20.2377C88.9593 21.2643 88.2827 21.9857 87.3672 21.9857H82.3048V24.3705H87.8478C90.3336 24.3705 91.9913 22.8622 91.9913 20.5645V8.88034H88.9375V9.97467ZM86.4291 17.451C84.8132 17.451 83.7453 16.2405 83.7453 14.3908C83.7453 12.5411 84.8132 11.3087 86.4291 11.3087C88.0457 11.3087 89.1328 12.5193 89.1328 14.3908C89.1328 16.2623 88.0649 17.451 86.4291 17.451Z" fill="white"/>
<path d="M99.6378 20.0755C103.021 20.0755 105.436 17.669 105.436 14.3908C105.436 11.1126 103.021 8.70605 99.6378 8.70605C96.2556 8.70605 93.8391 11.1102 93.8391 14.3908C93.8391 17.6713 96.2556 20.0755 99.6378 20.0755ZM99.6378 17.451C98 17.451 96.8885 16.2042 96.8885 14.3908C96.8885 12.5774 98 11.3087 99.6378 11.3087C101.276 11.3087 102.388 12.5532 102.388 14.3908C102.388 16.2284 101.274 17.451 99.6378 17.451Z" fill="white"/>
<path d="M110.155 19.9012V13.8654C110.155 12.4442 111.092 11.4177 112.424 11.4177C113.69 11.4177 114.54 12.3861 114.54 13.7128V19.9012H117.594V13.0349C117.594 10.4977 115.981 8.70605 113.487 8.70605C111.982 8.70605 110.761 9.34036 110.15 10.4008V8.88034H107.101V19.9012H110.155Z" fill="white"/>
</g>
<defs>
<clipPath id="clip0_2901_1456">
<rect width="118" height="28" fill="white"/>
</clipPath>
</defs>
</svg>
